<?xml version="1.0" encoding="UTF-8" standalone="no"?><!DOCTYPE svg PUBLIC "-//W3C//DTD SVG 1.1//EN" "http://www.w3.org/Graphics/SVG/1.1/DTD/svg11.dtd"><svg width="100%" height="100%" viewBox="0 0 1332 513" version="1.1" xmlns="http://www.w3.org/2000/svg" xmlns:xlink="http://www.w3.org/1999/xlink" xml:space="preserve" xmlns:serif="http://www.serif.com/" style="fill-rule:evenodd;clip-rule:evenodd;stroke-linejoin:round;stroke-miterlimit:2;"><g><path d="M939.181,156.783l0,129.933c0,48.168 31.936,63.783 80.104,63.783c44.636,-0 80.2,-12.49 80.27,-63.631c-0,-0.051 0.002,-2.868 0.002,-2.918l-41.712,-0c-0,0.044 -0.004,2.855 -0.004,2.899c-0.059,23.863 -16.227,25.319 -38.556,25.319c-23.47,-0 -41.49,-3.175 -41.769,-24.934l-0.004,-0.518l0,-129.933c0,-20.293 19.569,-25.451 41.94,-25.451c23.53,-0 38.503,5.7 38.659,25.144c0,0.102 0.062,15.585 0.062,15.688c0,9.64 -9.51,22.876 -23.701,22.876l-35.782,0c-9.12,0 -17.564,4.76 -21.178,9.42l0,48.315c0,-10.094 13.576,-22.807 25.829,-22.807l42.827,-0c27.208,-0 53.423,-25.502 53.423,-51.029c0,-0.119 -0.036,-22.393 -0.037,-22.512c-0.157,-47.889 -32.053,-63.426 -80.102,-63.426c-44.681,-0 -80.271,12.514 -80.271,63.782Z" style="fill:#ff914d;"/><path d="M845.089,157.411c0,-16.725 18.647,-26.071 37.961,-26.071c0.01,-0 21.286,-0 21.286,-0l9.407,-38.343c-0,0 -27.093,0.004 -27.391,0.004c-33.749,0 -79.594,14.302 -79.594,54.866l0,198.779l38.331,-0l0,-189.235Z" style="fill:#ff914d;"/><rect x="716.156" y="99.222" width="38.331" height="247.423" style="fill:#ff914d;"/><path d="M541.944,472.098l-0,-311.148c-0,-23.991 19.569,-29.618 41.939,-29.618c23.562,-0 41.631,7.334 41.772,29.358l0.001,0.26l0.098,106.255c-0,11.524 -8.706,21.252 -16.796,24.416l-50.407,18.566c-10.162,3.652 -16.607,9.106 -16.607,9.734l-0,55.271c-0,-14.851 15.223,-23.676 29.856,-29.036l50.406,-18.566c16.613,-6.319 41.78,-20.891 41.78,-45.04l0,-121.6c0,-48.168 -31.935,-67.949 -80.103,-67.949c-44.591,-0 -80.128,16.614 -80.27,67.649l0,0.3l0,311.148l38.331,0Z" style="fill:#ff914d;"/><path d="M301.513,160.95l-0,23.494c-0,19.61 20.38,36.064 40.999,43.539l56.081,19.948c18.194,6.688 24.962,18.956 24.962,34.639c0,23.99 -19.568,29.618 -41.939,29.618c-29.643,0 -41.825,-8.099 -41.825,-31.752l-38.278,-0l-0,11.303c-0,39.312 31.935,58.78 80.103,58.78c44.681,-0 80.27,-16.681 80.27,-67.949l0,-18.537c0,-19.572 -11.458,-38.259 -50.447,-52.216l-53.891,-19.169c-8.388,-3.468 -17.838,-12.538 -17.838,-21.941l0.134,-9.757c-0,-23.991 19.569,-29.618 41.939,-29.618c23.654,-0 40.373,8.363 40.373,30.589l39.73,-0l0,-3.137c0,-48.168 -31.935,-65.783 -80.103,-65.783c-44.68,-0 -80.27,16.68 -80.27,67.949Z" style="fill:#ff914d;"/><path d="M256.245,346.646l0,-185.696c0,-48.168 -31.935,-67.949 -80.103,-67.949c-44.68,-0 -80.27,16.68 -80.27,67.949l-0,185.696l38.331,-0l-0,-185.696c-0,-23.991 19.569,-29.618 41.939,-29.618c23.654,-0 41.772,7.392 41.772,29.618l0,185.696l38.331,-0Z" style="fill:#ff914d;"/><rect x="8.732" y="99.222" width="38.331" height="247.423" style="fill:#ff914d;"/></g><g><path d="M1319.16,51.04l-192.169,34.536c0.931,-32.241 37.997,-63.231 87.665,-71.462c48.177,-7.929 91.888,8.259 104.504,36.926Z" style="fill:#ff914d;fill-rule:nonzero;"/><path d="M1322.55,73.105c-3.469,30.98 -39.596,59.987 -87.4,67.906c-10.852,1.809 -21.492,2.388 -31.542,1.84c-16.866,44.897 -58.027,46.784 -58.027,46.784c0,0 27.063,-6.813 32.679,-50.652c-21.321,-5.598 -38.066,-16.784 -46.099,-31.697l190.389,-34.181Z" style="fill:#ff914d;fill-rule:nonzero;"/></g></svg>