<?xml version="1.0" encoding="UTF-8" standalone="no"?><!DOCTYPE svg PUBLIC "-//W3C//DTD SVG 1.1//EN" "http://www.w3.org/Graphics/SVG/1.1/DTD/svg11.dtd"><svg width="100%" height="100%" viewBox="0 0 320 123" version="1.1" xmlns="http://www.w3.org/2000/svg" xmlns:xlink="http://www.w3.org/1999/xlink" xml:space="preserve" xmlns:serif="http://www.serif.com/" style="fill-rule:evenodd;clip-rule:evenodd;stroke-linejoin:round;stroke-miterlimit:2;"><path d="M130.067,90.046c-0,-3.564 3.653,-5.682 7.165,-6.969l12.098,-4.455c3.987,-1.517 10.027,-5.014 10.027,-10.81l-0,-29.184c-0,-11.56 -7.665,-16.308 -19.225,-16.308c-10.702,0 -19.231,3.988 -19.265,16.236l0,0.072l0,74.676l9.2,-0l-0,-23.258Zm-57.704,-51.418l0,5.639c0,4.706 4.891,8.655 9.84,10.449l13.459,4.788c4.367,1.605 5.991,4.549 5.991,8.313c0,5.757 -4.696,7.108 -10.065,7.108c-7.115,0 -10.038,-1.944 -10.038,-7.62l-9.187,-0l0,2.712c0,9.435 7.665,14.108 19.225,14.108c10.723,-0 19.265,-4.004 19.265,-16.308l-0,-4.449c-0,-4.697 -2.75,-9.182 -12.108,-12.532l-12.933,-4.601c-2.014,-0.832 -4.282,-3.009 -4.282,-5.265l0.033,-2.342c-0,-5.758 4.696,-7.108 10.065,-7.108c5.677,-0 9.69,2.007 9.69,7.341l9.535,-0l-0,-0.753c-0,-11.56 -7.665,-15.788 -19.225,-15.788c-10.723,0 -19.265,4.004 -19.265,16.308Zm153.041,-1l-0,31.184c-0,11.56 7.664,15.308 19.224,15.308c10.713,-0 19.248,-2.998 19.265,-15.272c0,-0.012 0.001,-0.688 0.001,-0.7l-10.011,-0c-0,0.011 -0.001,0.685 -0.001,0.696c-0.014,5.727 -3.895,6.076 -9.254,6.076c-5.632,0 -9.957,-0.762 -10.024,-5.984l-0.001,-0.124l-0,-31.184c-0,-4.87 4.696,-6.108 10.065,-6.108c5.648,-0 9.241,1.368 9.279,6.034c-0,0.025 0.015,3.741 0.015,3.765c-0,2.314 -2.283,5.491 -5.689,5.491l-8.587,-0c-2.189,-0 -4.216,1.142 -5.083,2.26l-0,11.596c-0,-2.423 3.258,-5.474 6.199,-5.474l10.278,0c6.53,0 12.822,-6.12 12.822,-12.247c-0,-0.028 -0.009,-5.374 -0.009,-5.402c-0.038,-11.494 -7.693,-15.223 -19.225,-15.223c-10.723,0 -19.264,3.004 -19.264,15.308Zm-44.327,-13.815l-9.2,0l0,59.382l9.2,-0l-0,-59.382Zm-169.782,0l-9.199,0l-0,59.382l9.199,-0l0,-59.382Zm50.204,59.382l-0,-44.567c-0,-11.56 -7.665,-16.308 -19.225,-16.308c-10.723,0 -19.265,4.004 -19.265,16.308l0,44.567l9.2,-0l-0,-44.567c-0,-5.758 4.696,-7.108 10.065,-7.108c5.677,-0 10.025,1.774 10.025,7.108l0,44.567l9.2,-0Zm141.322,-45.416c0,-4.014 4.476,-6.257 9.111,-6.257c0.002,-0 5.109,-0 5.109,-0l2.257,-9.203c0,0 -6.502,0.001 -6.574,0.001c-8.099,0 -19.102,3.433 -19.102,13.168l0,47.707l9.199,-0l0,-45.416Zm-72.754,38.998c0.024,-0.167 1.565,-1.462 3.985,-2.332l12.098,-4.456c1.942,-0.759 4.031,-3.094 4.031,-5.86l-0.024,-25.501l0,-0.062c-0.034,-5.286 -4.37,-7.046 -10.025,-7.046c-5.369,-0 -10.065,1.35 -10.065,7.108l-0,38.153l-0,-0.004Z" style="fill:#ff914d;"/><path d="M317.411,17.545c-0.833,7.435 -9.503,14.397 -20.976,16.298c-2.605,0.434 -5.158,0.573 -7.57,0.441c-4.048,10.775 -13.927,11.228 -13.927,11.228c0,0 6.495,-1.635 7.843,-12.156c-5.117,-1.344 -9.136,-4.028 -11.064,-7.607l45.694,-8.204Zm-0.811,-5.295l-46.121,8.288c0.223,-7.738 9.119,-15.175 21.04,-17.151c11.562,-1.903 22.053,1.983 25.081,8.863Z" style="fill:#331606;fill-rule:nonzero;"/></svg>